<svg width="24" height="24" viewBox="0 0 24 24" fill="none" xmlns="http://www.w3.org/2000/svg">
<path d="M11.9968 5.84273C8.58954 5.84273 5.83973 8.59254 5.83973 11.9998C5.83973 15.407 8.58954 18.1568 11.9968 18.1568C15.404 18.1568 18.1538 15.407 18.1538 11.9998C18.1538 8.59254 15.404 5.84273 11.9968 5.84273ZM11.9968 16.0014C9.79333 16.0014 7.99515 14.2032 7.99515 11.9998C7.99515 9.79633 9.79333 7.99815 11.9968 7.99815C14.2002 7.99815 15.9984 9.79633 15.9984 11.9998C15.9984 14.2032 14.2002 16.0014 11.9968 16.0014ZM18.406 4.15562C17.6105 4.15562 16.968 4.79804 16.968 5.59357C16.968 6.38909 17.6105 7.03151 18.406 7.03151C19.2015 7.03151 19.8439 6.39209 19.8439 5.59357C19.8442 5.40467 19.8071 5.21758 19.735 5.04301C19.6628 4.86844 19.5569 4.70983 19.4233 4.57626C19.2897 4.44269 19.1311 4.33678 18.9565 4.2646C18.782 4.19242 18.5949 4.15539 18.406 4.15562ZM23.9987 11.9998C23.9987 10.3427 24.0137 8.70061 23.9206 7.04652C23.8275 5.12526 23.3893 3.42014 21.9843 2.01522C20.5764 0.607291 18.8743 0.172005 16.953 0.0789442C15.2959 -0.014117 13.6539 0.000892919 11.9998 0.000892919C10.3427 0.000892919 8.70061 -0.014117 7.04652 0.0789442C5.12526 0.172005 3.42014 0.610293 2.01522 2.01522C0.607291 3.42314 0.172005 5.12526 0.0789442 7.04652C-0.014117 8.70361 0.000892919 10.3457 0.000892919 11.9998C0.000892919 13.6539 -0.014117 15.2989 0.0789442 16.953C0.172005 18.8743 0.610293 20.5794 2.01522 21.9843C3.42314 23.3923 5.12526 23.8275 7.04652 23.9206C8.70361 24.0137 10.3457 23.9987 11.9998 23.9987C13.6569 23.9987 15.2989 24.0137 16.953 23.9206C18.8743 23.8275 20.5794 23.3893 21.9843 21.9843C23.3923 20.5764 23.8275 18.8743 23.9206 16.953C24.0167 15.2989 23.9987 13.6569 23.9987 11.9998ZM21.3569 19.0784C21.1378 19.6248 20.8736 20.0331 20.4503 20.4533C20.0271 20.8766 19.6218 21.1408 19.0754 21.3599C17.4964 21.9873 13.7469 21.8462 11.9968 21.8462C10.2466 21.8462 6.49416 21.9873 4.91512 21.3629C4.36876 21.1438 3.96049 20.8796 3.54022 20.4563C3.11694 20.0331 2.85277 19.6278 2.63362 19.0814C2.00921 17.4994 2.15031 13.7499 2.15031 11.9998C2.15031 10.2496 2.00921 6.49716 2.63362 4.91812C2.85277 4.37176 3.11694 3.9635 3.54022 3.54322C3.9635 3.12294 4.36876 2.85577 4.91512 2.63662C6.49416 2.01221 10.2466 2.15331 11.9968 2.15331C13.7469 2.15331 17.4994 2.01221 19.0784 2.63662C19.6248 2.85577 20.0331 3.11994 20.4533 3.54322C20.8766 3.9665 21.1408 4.37176 21.3599 4.91812C21.9843 6.49716 21.8432 10.2496 21.8432 11.9998C21.8432 13.7499 21.9843 17.4994 21.3569 19.0784Z" fill="white"/>
</svg>
