<svg width="256" height="36" viewBox="0 0 256 36" fill="none" xmlns="http://www.w3.org/2000/svg">
<path d="M2.75394 32H13.3052C20.9034 32 26.1127 27.4212 26.1127 20.387C26.1127 13.3528 20.9034 8.774 13.3052 8.774H2.75394V32ZM8.1291 27.5871V13.1869H13.0397C17.6518 13.1869 20.6711 15.9409 20.6711 20.387C20.6711 24.8331 17.6518 27.5871 13.0397 27.5871H8.1291ZM38.2954 32.2654C43.9692 32.2654 48.0835 28.4497 48.0835 23.0746C48.0835 17.6994 43.9692 13.8837 38.2954 13.8837C32.6216 13.8837 28.4741 17.6994 28.4741 23.0746C28.4741 28.4497 32.6216 32.2654 38.2954 32.2654ZM38.2954 28.0184C35.7074 28.0184 33.7166 26.1603 33.7166 23.0746C33.7166 19.9888 35.7074 18.1308 38.2954 18.1308C40.8835 18.1308 42.8411 19.9888 42.8411 23.0746C42.8411 26.1603 40.8835 28.0184 38.2954 28.0184ZM51.5433 32H56.7194V7.38044H51.5433V32ZM68.7233 13.8837C65.8698 13.8837 62.9832 14.6469 61.0255 16.0404L62.8836 19.657C64.1776 18.6285 66.1353 17.998 68.0265 17.998C70.8136 17.998 72.1408 19.2921 72.1408 21.5151H68.0265C62.585 21.5151 60.3619 23.705 60.3619 26.8571C60.3619 29.9428 62.8504 32.2654 67.0311 32.2654C69.6523 32.2654 71.5104 31.4028 72.4726 29.7769V32H77.3169V21.8137C77.3169 16.4054 74.1648 13.8837 68.7233 13.8837ZM68.3251 28.7815C66.5002 28.7815 65.4053 27.9189 65.4053 26.6248C65.4053 25.4304 66.1684 24.5345 68.5906 24.5345H72.1408V26.3594C71.5436 27.9852 70.0505 28.7815 68.3251 28.7815ZM92.8514 13.8837C90.4292 13.8837 88.3389 14.7132 86.9453 16.2395V14.1492H82.0015V32H87.1776V23.1741C87.1776 19.8893 88.9693 18.363 91.4578 18.363C93.7472 18.363 95.0744 19.6902 95.0744 22.5769V32H100.251V21.7806C100.251 16.339 97.0652 13.8837 92.8514 13.8837ZM107.53 11.6607C109.455 11.6607 110.749 10.3998 110.749 8.67446C110.749 7.08182 109.455 5.88734 107.53 5.88734C105.606 5.88734 104.312 7.14818 104.312 8.774C104.312 10.3998 105.606 11.6607 107.53 11.6607ZM104.942 32H110.118V14.1492H104.942V32ZM120.928 32.2654C126.27 32.2654 129.356 29.9097 129.356 26.5917C129.356 19.5575 118.572 22.5105 118.572 19.458C118.572 18.5289 119.568 17.799 121.89 17.799C123.516 17.799 125.274 18.1308 127.033 19.1262L128.758 15.4432C127.066 14.4478 124.345 13.8837 121.89 13.8837C116.681 13.8837 113.628 16.2727 113.628 19.657C113.628 26.7907 124.412 23.8045 124.412 26.7244C124.412 27.7198 123.516 28.3502 121.127 28.3502C118.937 28.3502 116.515 27.6534 114.922 26.6248L113.197 30.341C114.856 31.4359 117.909 32.2654 120.928 32.2654ZM155.41 13.8837C152.723 13.8837 150.4 14.9787 148.973 16.8036C147.712 14.8459 145.589 13.8837 143.1 13.8837C140.811 13.8837 138.82 14.68 137.493 16.2063V14.1492H132.549V32H137.725V23.0414C137.725 19.8561 139.351 18.363 141.64 18.363C143.797 18.363 145.025 19.6902 145.025 22.5769V32H150.201V23.0414C150.201 19.8561 151.827 18.363 154.149 18.363C156.24 18.363 157.534 19.6902 157.534 22.5769V32H162.71V21.7806C162.71 16.339 159.657 13.8837 155.41 13.8837Z" fill="#F5F5F5"/>
<path d="M169.307 32.2654C171.099 32.2654 172.525 30.9051 172.525 29.0138C172.525 27.0894 171.099 25.8285 169.307 25.8285C167.515 25.8285 166.088 27.0894 166.088 29.0138C166.088 30.9051 167.515 32.2654 169.307 32.2654Z" fill="#F06337"/>
</svg>
