<svg width="171" height="28" viewBox="0 0 171 28" fill="none" xmlns="http://www.w3.org/2000/svg">
<path d="M0.75394 27H11.3052C18.9034 27 24.1127 22.4212 24.1127 15.387C24.1127 8.35284 18.9034 3.774 11.3052 3.774H0.75394V27ZM6.1291 22.5871V8.18694H11.0397C15.6518 8.18694 18.6711 10.9409 18.6711 15.387C18.6711 19.8331 15.6518 22.5871 11.0397 22.5871H6.1291ZM36.2954 27.2654C41.9692 27.2654 46.0835 23.4497 46.0835 18.0746C46.0835 12.6994 41.9692 8.88372 36.2954 8.88372C30.6216 8.88372 26.4741 12.6994 26.4741 18.0746C26.4741 23.4497 30.6216 27.2654 36.2954 27.2654ZM36.2954 23.0184C33.7074 23.0184 31.7166 21.1603 31.7166 18.0746C31.7166 14.9888 33.7074 13.1308 36.2954 13.1308C38.8835 13.1308 40.8411 14.9888 40.8411 18.0746C40.8411 21.1603 38.8835 23.0184 36.2954 23.0184ZM49.5433 27H54.7194V2.38044H49.5433V27ZM66.7233 8.88372C63.8698 8.88372 60.9832 9.64686 59.0255 11.0404L60.8836 14.657C62.1776 13.6285 64.1353 12.998 66.0265 12.998C68.8136 12.998 70.1408 14.2921 70.1408 16.5151H66.0265C60.585 16.5151 58.3619 18.705 58.3619 21.8571C58.3619 24.9428 60.8504 27.2654 65.0311 27.2654C67.6523 27.2654 69.5104 26.4028 70.4726 24.7769V27H75.3169V16.8137C75.3169 11.4054 72.1648 8.88372 66.7233 8.88372ZM66.3251 23.7815C64.5002 23.7815 63.4053 22.9189 63.4053 21.6248C63.4053 20.4304 64.1684 19.5345 66.5906 19.5345H70.1408V21.3594C69.5436 22.9852 68.0505 23.7815 66.3251 23.7815ZM90.8514 8.88372C88.4292 8.88372 86.3389 9.71322 84.9453 11.2395V9.14916H80.0015V27H85.1776V18.1741C85.1776 14.8893 86.9693 13.363 89.4578 13.363C91.7472 13.363 93.0744 14.6902 93.0744 17.5769V27H98.2505V16.7806C98.2505 11.339 95.0652 8.88372 90.8514 8.88372ZM105.53 6.66066C107.455 6.66066 108.749 5.39982 108.749 3.67446C108.749 2.08182 107.455 0.887338 105.53 0.887338C103.606 0.887338 102.312 2.14818 102.312 3.774C102.312 5.39982 103.606 6.66066 105.53 6.66066ZM102.942 27H108.118V9.14916H102.942V27ZM118.928 27.2654C124.27 27.2654 127.356 24.9097 127.356 21.5917C127.356 14.5575 116.572 17.5105 116.572 14.458C116.572 13.5289 117.568 12.799 119.89 12.799C121.516 12.799 123.274 13.1308 125.033 14.1262L126.758 10.4432C125.066 9.44778 122.345 8.88372 119.89 8.88372C114.681 8.88372 111.628 11.2727 111.628 14.657C111.628 21.7907 122.412 18.8045 122.412 21.7244C122.412 22.7198 121.516 23.3502 119.127 23.3502C116.937 23.3502 114.515 22.6534 112.922 21.6248L111.197 25.341C112.856 26.4359 115.909 27.2654 118.928 27.2654ZM153.41 8.88372C150.723 8.88372 148.4 9.97866 146.973 11.8036C145.712 9.84594 143.589 8.88372 141.1 8.88372C138.811 8.88372 136.82 9.68004 135.493 11.2063V9.14916H130.549V27H135.725V18.0414C135.725 14.8561 137.351 13.363 139.64 13.363C141.797 13.363 143.025 14.6902 143.025 17.5769V27H148.201V18.0414C148.201 14.8561 149.827 13.363 152.149 13.363C154.24 13.363 155.534 14.6902 155.534 17.5769V27H160.71V16.7806C160.71 11.339 157.657 8.88372 153.41 8.88372Z" fill="#F5F5F5"/>
<path d="M167.307 27.2654C169.099 27.2654 170.525 25.9051 170.525 24.0138C170.525 22.0894 169.099 20.8285 167.307 20.8285C165.515 20.8285 164.088 22.0894 164.088 24.0138C164.088 25.9051 165.515 27.2654 167.307 27.2654Z" fill="#587DDC"/>
</svg>
